<svg xmlns="http://www.w3.org/2000/svg" version="1.1" xmlns:xlink="http://www.w3.org/1999/xlink" xmlns:svgjs="http://svgjs.dev/svgjs" width="1000" height="1000" viewBox="0 0 1000 1000"><rect width="1000" height="1000" fill="#000000"></rect><g transform="matrix(0.7,0,0,0.7,149.57575757575756,282.1265587044535)"><svg viewBox="0 0 396 247" data-background-color="#ffffff" preserveAspectRatio="xMidYMid meet" height="623" width="1000" xmlns="http://www.w3.org/2000/svg" xmlns:xlink="http://www.w3.org/1999/xlink"><g id="tight-bounds" transform="matrix(1,0,0,1,0.2400000000000091,-0.09999999999999432)"><svg viewBox="0 0 395.52 247.2" height="247.2" width="395.52"><g><svg></svg></g><g><svg viewBox="0 0 395.52 247.2" height="247.2" width="395.52"><g transform="matrix(1,0,0,1,75.54432,87.0828400804829)"><svg viewBox="0 0 244.43135999999998 73.03431983903421" height="73.03431983903421" width="244.43135999999998"><g><svg viewBox="0 0 244.43135999999998 73.03431983903421" height="73.03431983903421" width="244.43135999999998"><g><svg viewBox="0 0 244.43135999999998 73.03431983903421" height="73.03431983903421" width="244.43135999999998"><g><svg viewBox="0 0 244.43135999999998 73.03431983903421" height="73.03431983903421" width="244.43135999999998"><g><svg viewBox="0 0 244.43135999999998 73.03431983903421" height="73.03431983903421" width="244.43135999999998"><g><svg viewBox="0 0 244.43135999999998 73.03431983903421" height="73.03431983903421" width="244.43135999999998"><g transform="matrix(1,0,0,1,0,0)"><svg width="244.43135999999998" viewBox="5.03000020980835 -36.25 121.33000183105469 36.25" height="73.03431983903421" data-palette-color="#42b883"><path d="M11.08 0L5.03 0 5.03-35.77 26.78-35.77 25.98-31.47 11.08-31.47 11.08-20.68 24.27-20.68 23.49-16.5 11.08-16.5 11.08 0ZM54.15 0L51.1-9.23 36.77-9.23 33.76 0 28.34 0 41.01-35.77 47.87-35.77 60.54 0 54.15 0ZM38.06-13.38L49.75-13.38 45.51-26.61 44.16-31.71 43.67-31.71 42.36-26.61 38.06-13.38ZM64.91 0L64.91-1.81Q67.99-4.79 70.39-7.34 72.8-9.89 74.59-12.08 76.39-14.28 77.63-16.17 78.88-18.07 79.66-19.73 80.44-21.39 80.78-22.84 81.12-24.29 81.12-25.63L81.12-25.63Q81.12-27.32 80.57-28.49 80.02-29.66 79.11-30.38 78.19-31.1 77.03-31.42 75.87-31.74 74.65-31.74L74.65-31.74Q73.7-31.74 72.65-31.57 71.6-31.4 70.56-31.09 69.53-30.79 68.56-30.38 67.6-29.98 66.79-29.52L66.79-29.52 66.79-32.74Q68.92-34.35 71.63-35.3 74.34-36.25 77.12-36.25L77.12-36.25Q79.34-36.25 81.25-35.61 83.15-34.96 84.53-33.75 85.91-32.54 86.69-30.83 87.47-29.13 87.47-26.98L87.47-26.98Q87.47-24.68 86.56-22.19 85.64-19.7 83.77-16.92 81.9-14.14 79.1-11 76.29-7.86 72.5-4.3L72.5-4.3 88.76-4.3 87.93 0 64.91 0ZM112.15-9.5L120.67-35.77 126.36-35.77 113.52 0 106.71 0 93.89-35.77 100.46-35.77 108.98-9.5 110.34-4.44 110.81-4.44 112.15-9.5Z" opacity="1" transform="matrix(1,0,0,1,0,0)" fill="#ffffff" class="undefined-text-0" data-fill-palette-color="primary" id="text-0"></path></svg></g></svg></g></svg></g></svg></g><g></g></svg></g></svg></g></svg></g><g><path d="M88.003 69.841A122.216 122.216 0 0 1 307.517 69.841L300.931 69.841A115.629 115.629 0 0 0 94.589 69.841L88.003 69.841M88.003 177.359A122.216 122.216 0 0 0 307.517 177.359L300.931 177.359A115.629 115.629 0 0 1 94.589 177.359L88.003 177.359" fill="#42b883" stroke="transparent" data-fill-palette-color="tertiary"></path></g></svg></g><defs></defs></svg><rect width="395.52" height="247.2" fill="none" stroke="none" visibility="hidden"></rect></g></svg></g></svg>